<svg xmlns="http://www.w3.org/2000/svg" width="1280" height="1120" viewBox="0 0 1280 1120"><rect width="1280" height="1120" fill="#eee9df"/><text x="24" y="53" fill="#aa5b48" font-family="Arial,sans-serif" font-size="14" letter-spacing="3">VIVI / CINEMATIC CONTACT SHEET</text><text x="23" y="110" fill="#263137" font-family="Georgia,serif" font-size="50">THE MESSAGE</text><text x="1040" y="108" fill="#aa5b48" font-family="Arial,sans-serif" font-size="14">8 FRAMES · V1</text><g><rect x="22" y="154" width="293" height="450" rx="10" fill="#fffaf2" stroke="#d5c9ba"/><text x="38" y="181" fill="#a85a47" font-family="Arial,sans-serif" font-weight="bold" font-size="13">01</text><text x="70" y="181" fill="#263137" font-family="Arial,sans-serif" font-weight="bold" font-size="12">ESTABLISHING_WIDE</text><rect x="22" y="198" width="293" height="188" fill="#756071"/><path d="M22 307.03999999999996 L315 297.64 V386 H22Z" fill="#2b3043" opacity=".67"/><rect x="51.3" y="224.32" width="76.18" height="56.4" fill="#2b3043" stroke="#e6aa83" stroke-width="3" opacity=".8"/><rect x="244.68" y="231.84" width="46.88" height="78.96" fill="#2b3043" stroke="#e6aa83" stroke-width="3"/><path d="M130.41 320.2 H232.95999999999998 L247.61 333.36 H115.76Z" fill="#e6aa83" opacity=".62"/><path d="M45.44 323.96000000000004 Q57.16 295.76 115.76 312.68 L121.62 342.76 H42.510000000000005Z" fill="#756071" stroke="#e6aa83" stroke-opacity=".5"/><path d="M122.47999999999999 296.24 Q127.47999999999999 293.24 132.48 296.24 L135.48 319.24 L119.47999999999999 319.24Z" fill="#efe2cd"/><ellipse cx="127.47999999999999" cy="288.24" rx="7" ry="9" fill="#efe2cd"/><path d="M123.47999999999999 318.24 L122.47999999999999 336.24 M131.48 318.24 L132.48 336.24" stroke="#efe2cd" stroke-width="5" stroke-linecap="round"/><path d="M216.24 292.48 Q221.24 289.48 226.24 292.48 L229.24 315.48 L213.24 315.48Z" fill="#e6aa83"/><ellipse cx="221.24" cy="284.48" rx="7" ry="9" fill="#e6aa83"/><path d="M217.24 314.48 L216.24 332.48 M225.24 314.48 L226.24 332.48" stroke="#e6aa83" stroke-width="5" stroke-linecap="round"/><rect x="30" y="206" width="277" height="172" fill="none" stroke="#e6aa83" stroke-opacity=".28"/><text x="38" y="406" fill="#263137" font-family="Arial,sans-serif" font-size="14">“I’m going to shower.”</text><text x="38" y="455" fill="#756c63" font-family="Arial,sans-serif" font-size="10">CAM wide · x50 y54</text><text x="38" y="474" fill="#756c63" font-family="Arial,sans-serif" font-size="10">CAST two adults / partner at doorway; playe…</text><text x="38" y="493" fill="#756c63" font-family="Arial,sans-serif" font-size="10">WORLD phone on table, bathroom visible</text><text x="38" y="512" fill="#756c63" font-family="Arial,sans-serif" font-size="10">LIGHT amber practical / plum window</text><text x="38" y="531" fill="#756c63" font-family="Arial,sans-serif" font-size="10">MOD none</text><text x="38" y="550" fill="#756c63" font-family="Arial,sans-serif" font-size="10">CTRL OFF · SFX room tone</text><text x="38" y="569" fill="#756c63" font-family="Arial,sans-serif" font-size="10">OUT cut</text></g><g><rect x="333" y="154" width="293" height="450" rx="10" fill="#fffaf2" stroke="#d5c9ba"/><text x="349" y="181" fill="#a85a47" font-family="Arial,sans-serif" font-weight="bold" font-size="13">02</text><text x="381" y="181" fill="#263137" font-family="Arial,sans-serif" font-weight="bold" font-size="12">NPC_EXIT</text><rect x="333" y="198" width="293" height="188" fill="#756071"/><path d="M333 307.03999999999996 L626 297.64 V386 H333Z" fill="#2b3043" opacity=".67"/><rect x="362.3" y="224.32" width="76.18" height="56.4" fill="#2b3043" stroke="#e6aa83" stroke-width="3" opacity=".8"/><rect x="555.6800000000001" y="231.84" width="46.88" height="78.96" fill="#2b3043" stroke="#e6aa83" stroke-width="3"/><path d="M441.40999999999997 320.2 H543.96 L558.61 333.36 H426.76Z" fill="#e6aa83" opacity=".62"/><path d="M356.44 323.96000000000004 Q368.15999999999997 295.76 426.76 312.68 L432.62 342.76 H353.51Z" fill="#756071" stroke="#e6aa83" stroke-opacity=".5"/><path d="M433.48 296.24 Q438.48 293.24 443.48 296.24 L446.48 319.24 L430.48 319.24Z" fill="#efe2cd"/><ellipse cx="438.48" cy="288.24" rx="7" ry="9" fill="#efe2cd"/><path d="M434.48 318.24 L433.48 336.24 M442.48 318.24 L443.48 336.24" stroke="#efe2cd" stroke-width="5" stroke-linecap="round"/><path d="M527.24 292.48 Q532.24 289.48 537.24 292.48 L540.24 315.48 L524.24 315.48Z" fill="#e6aa83"/><ellipse cx="532.24" cy="284.48" rx="7" ry="9" fill="#e6aa83"/><path d="M528.24 314.48 L527.24 332.48 M536.24 314.48 L537.24 332.48" stroke="#e6aa83" stroke-width="5" stroke-linecap="round"/><rect x="341" y="206" width="277" height="172" fill="none" stroke="#e6aa83" stroke-opacity=".28"/><text x="349" y="406" fill="#263137" font-family="Arial,sans-serif" font-size="14">—</text><text x="349" y="455" fill="#756c63" font-family="Arial,sans-serif" font-size="10">CAM two person · x61 y55</text><text x="349" y="474" fill="#756c63" font-family="Arial,sans-serif" font-size="10">CAST partner + player / partner turns; play…</text><text x="349" y="493" fill="#756c63" font-family="Arial,sans-serif" font-size="10">WORLD bathroom door closes</text><text x="349" y="512" fill="#756c63" font-family="Arial,sans-serif" font-size="10">LIGHT warm room / dark door</text><text x="349" y="531" fill="#756c63" font-family="Arial,sans-serif" font-size="10">MOD door close</text><text x="349" y="550" fill="#756c63" font-family="Arial,sans-serif" font-size="10">CTRL OFF · SFX latch</text><text x="349" y="569" fill="#756c63" font-family="Arial,sans-serif" font-size="10">OUT cut</text></g><g><rect x="644" y="154" width="293" height="450" rx="10" fill="#fffaf2" stroke="#d5c9ba"/><text x="660" y="181" fill="#a85a47" font-family="Arial,sans-serif" font-weight="bold" font-size="13">03</text><text x="692" y="181" fill="#263137" font-family="Arial,sans-serif" font-weight="bold" font-size="12">STATIC_TENSION</text><rect x="644" y="198" width="293" height="188" fill="#756071"/><path d="M644 307.03999999999996 L937 297.64 V386 H644Z" fill="#2b3043" opacity=".67"/><rect x="673.3" y="224.32" width="76.18" height="56.4" fill="#2b3043" stroke="#e6aa83" stroke-width="3" opacity=".8"/><rect x="866.6800000000001" y="231.84" width="46.88" height="78.96" fill="#2b3043" stroke="#e6aa83" stroke-width="3"/><path d="M752.41 320.2 H854.96 L869.61 333.36 H737.76Z" fill="#e6aa83" opacity=".62"/><path d="M667.44 323.96000000000004 Q679.16 295.76 737.76 312.68 L743.62 342.76 H664.51Z" fill="#756071" stroke="#e6aa83" stroke-opacity=".5"/><path d="M744.48 296.24 Q749.48 293.24 754.48 296.24 L757.48 319.24 L741.48 319.24Z" fill="#efe2cd"/><ellipse cx="749.48" cy="288.24" rx="7" ry="9" fill="#efe2cd"/><path d="M745.48 318.24 L744.48 336.24 M753.48 318.24 L754.48 336.24" stroke="#efe2cd" stroke-width="5" stroke-linecap="round"/><rect x="652" y="206" width="277" height="172" fill="none" stroke="#e6aa83" stroke-opacity=".28"/><text x="660" y="406" fill="#263137" font-family="Arial,sans-serif" font-size="14">—</text><text x="660" y="455" fill="#756c63" font-family="Arial,sans-serif" font-size="10">CAM locked · x50 y56</text><text x="660" y="474" fill="#756c63" font-family="Arial,sans-serif" font-size="10">CAST player / idle, facing table</text><text x="660" y="493" fill="#756c63" font-family="Arial,sans-serif" font-size="10">WORLD empty room; shower running</text><text x="660" y="512" fill="#756c63" font-family="Arial,sans-serif" font-size="10">LIGHT amber pool on table</text><text x="660" y="531" fill="#756c63" font-family="Arial,sans-serif" font-size="10">MOD shower starts</text><text x="660" y="550" fill="#756c63" font-family="Arial,sans-serif" font-size="10">CTRL ON · SFX shower</text><text x="660" y="569" fill="#756c63" font-family="Arial,sans-serif" font-size="10">OUT hold</text></g><g><rect x="955" y="154" width="293" height="450" rx="10" fill="#fffaf2" stroke="#d5c9ba"/><text x="971" y="181" fill="#a85a47" font-family="Arial,sans-serif" font-weight="bold" font-size="13">04</text><text x="1003" y="181" fill="#263137" font-family="Arial,sans-serif" font-weight="bold" font-size="12">PHONE_INSERT</text><rect x="955" y="198" width="293" height="188" fill="#756071"/><path d="M955 307.03999999999996 L1248 297.64 V386 H955Z" fill="#2b3043" opacity=".67"/><rect x="984.3" y="224.32" width="76.18" height="56.4" fill="#2b3043" stroke="#e6aa83" stroke-width="3" opacity=".8"/><rect x="1177.68" y="231.84" width="46.88" height="78.96" fill="#2b3043" stroke="#e6aa83" stroke-width="3"/><path d="M1063.41 320.2 H1165.96 L1180.6100000000001 333.36 H1048.76Z" fill="#e6aa83" opacity=".62"/><path d="M978.44 323.96000000000004 Q990.16 295.76 1048.76 312.68 L1054.62 342.76 H975.51Z" fill="#756071" stroke="#e6aa83" stroke-opacity=".5"/><rect x="1045.83" y="228.08" width="111.34" height="116.56" rx="5" fill="#2b3043" stroke="#e6aa83" stroke-width="5" opacity=".93"/><path d="M1066.34 254.4 H1136.66 M1066.34 271.32 H1124.94" stroke="#e6aa83" stroke-width="3"/><rect x="963" y="206" width="277" height="172" fill="none" stroke="#e6aa83" stroke-opacity=".28"/><text x="971" y="406" fill="#263137" font-family="Arial,sans-serif" font-size="14">“I still smell like you.”</text><text x="971" y="455" fill="#756c63" font-family="Arial,sans-serif" font-size="10">CAM object · x54 y68</text><text x="971" y="474" fill="#756c63" font-family="Arial,sans-serif" font-size="10">CAST none / —</text><text x="971" y="493" fill="#756c63" font-family="Arial,sans-serif" font-size="10">WORLD phone illuminates</text><text x="971" y="512" fill="#756c63" font-family="Arial,sans-serif" font-size="10">LIGHT cold phone on warm wood</text><text x="971" y="531" fill="#756c63" font-family="Arial,sans-serif" font-size="10">MOD message: I still smell like you</text><text x="971" y="550" fill="#756c63" font-family="Arial,sans-serif" font-size="10">CTRL OFF · SFX vibration</text><text x="971" y="569" fill="#756c63" font-family="Arial,sans-serif" font-size="10">OUT hard cut</text></g><g><rect x="22" y="622" width="293" height="450" rx="10" fill="#fffaf2" stroke="#d5c9ba"/><text x="38" y="649" fill="#a85a47" font-family="Arial,sans-serif" font-weight="bold" font-size="13">05</text><text x="70" y="649" fill="#263137" font-family="Arial,sans-serif" font-weight="bold" font-size="12">STATIC_TENSION</text><rect x="22" y="666" width="293" height="188" fill="#756071"/><path d="M22 775.04 L315 765.64 V854 H22Z" fill="#2b3043" opacity=".67"/><rect x="51.3" y="692.32" width="76.18" height="56.4" fill="#2b3043" stroke="#e6aa83" stroke-width="3" opacity=".8"/><rect x="244.68" y="699.84" width="46.88" height="78.96" fill="#2b3043" stroke="#e6aa83" stroke-width="3"/><path d="M130.41 788.2 H232.95999999999998 L247.61 801.36 H115.76Z" fill="#e6aa83" opacity=".62"/><path d="M45.44 791.96 Q57.16 763.76 115.76 780.68 L121.62 810.76 H42.510000000000005Z" fill="#756071" stroke="#e6aa83" stroke-opacity=".5"/><path d="M122.47999999999999 764.24 Q127.47999999999999 761.24 132.48 764.24 L135.48 787.24 L119.47999999999999 787.24Z" fill="#efe2cd"/><ellipse cx="127.47999999999999" cy="756.24" rx="7" ry="9" fill="#efe2cd"/><path d="M123.47999999999999 786.24 L122.47999999999999 804.24 M131.48 786.24 L132.48 804.24" stroke="#efe2cd" stroke-width="5" stroke-linecap="round"/><rect x="30" y="674" width="277" height="172" fill="none" stroke="#e6aa83" stroke-opacity=".28"/><text x="38" y="874" fill="#263137" font-family="Arial,sans-serif" font-size="14">—</text><text x="38" y="923" fill="#756c63" font-family="Arial,sans-serif" font-size="10">CAM locked · x50 y56</text><text x="38" y="942" fill="#756c63" font-family="Arial,sans-serif" font-size="10">CAST player / hesitates</text><text x="38" y="961" fill="#756c63" font-family="Arial,sans-serif" font-size="10">WORLD phone remains lit; door closed</text><text x="38" y="980" fill="#756c63" font-family="Arial,sans-serif" font-size="10">LIGHT practical falls off toward door</text><text x="38" y="999" fill="#756c63" font-family="Arial,sans-serif" font-size="10">MOD typing appears</text><text x="38" y="1018" fill="#756c63" font-family="Arial,sans-serif" font-size="10">CTRL ON · SFX clock tick</text><text x="38" y="1037" fill="#756c63" font-family="Arial,sans-serif" font-size="10">OUT hold</text></g><g><rect x="333" y="622" width="293" height="450" rx="10" fill="#fffaf2" stroke="#d5c9ba"/><text x="349" y="649" fill="#a85a47" font-family="Arial,sans-serif" font-weight="bold" font-size="13">06</text><text x="381" y="649" fill="#263137" font-family="Arial,sans-serif" font-weight="bold" font-size="12">FOLLOW</text><rect x="333" y="666" width="293" height="188" fill="#756071"/><path d="M333 775.04 L626 765.64 V854 H333Z" fill="#2b3043" opacity=".67"/><rect x="362.3" y="692.32" width="76.18" height="56.4" fill="#2b3043" stroke="#e6aa83" stroke-width="3" opacity=".8"/><rect x="555.6800000000001" y="699.84" width="46.88" height="78.96" fill="#2b3043" stroke="#e6aa83" stroke-width="3"/><path d="M441.40999999999997 788.2 H543.96 L558.61 801.36 H426.76Z" fill="#e6aa83" opacity=".62"/><path d="M356.44 791.96 Q368.15999999999997 763.76 426.76 780.68 L432.62 810.76 H353.51Z" fill="#756071" stroke="#e6aa83" stroke-opacity=".5"/><path d="M433.48 764.24 Q438.48 761.24 443.48 764.24 L446.48 787.24 L430.48 787.24Z" fill="#efe2cd"/><ellipse cx="438.48" cy="756.24" rx="7" ry="9" fill="#efe2cd"/><path d="M434.48 786.24 L433.48 804.24 M442.48 786.24 L443.48 804.24" stroke="#efe2cd" stroke-width="5" stroke-linecap="round"/><rect x="341" y="674" width="277" height="172" fill="none" stroke="#e6aa83" stroke-opacity=".28"/><text x="349" y="874" fill="#263137" font-family="Arial,sans-serif" font-size="14">No choice modal</text><text x="349" y="923" fill="#756c63" font-family="Arial,sans-serif" font-size="10">CAM soft follow · player</text><text x="349" y="942" fill="#756c63" font-family="Arial,sans-serif" font-size="10">CAST player / may approach, sit, leave or g…</text><text x="349" y="961" fill="#756c63" font-family="Arial,sans-serif" font-size="10">WORLD walkable living room</text><text x="349" y="980" fill="#756c63" font-family="Arial,sans-serif" font-size="10">LIGHT local light follows silhouette</text><text x="349" y="999" fill="#756c63" font-family="Arial,sans-serif" font-size="10">MOD water stops at 30s</text><text x="349" y="1018" fill="#756c63" font-family="Arial,sans-serif" font-size="10">CTRL ON · SFX water cuts</text><text x="349" y="1037" fill="#756c63" font-family="Arial,sans-serif" font-size="10">OUT player-driven</text></g><g><rect x="644" y="622" width="293" height="450" rx="10" fill="#fffaf2" stroke="#d5c9ba"/><text x="660" y="649" fill="#a85a47" font-family="Arial,sans-serif" font-weight="bold" font-size="13">07</text><text x="692" y="649" fill="#263137" font-family="Arial,sans-serif" font-weight="bold" font-size="12">FINAL_COMMIT</text><rect x="644" y="666" width="293" height="188" fill="#756071"/><path d="M644 775.04 L937 765.64 V854 H644Z" fill="#2b3043" opacity=".67"/><rect x="673.3" y="692.32" width="76.18" height="56.4" fill="#2b3043" stroke="#e6aa83" stroke-width="3" opacity=".8"/><rect x="866.6800000000001" y="699.84" width="46.88" height="78.96" fill="#2b3043" stroke="#e6aa83" stroke-width="3"/><path d="M752.41 788.2 H854.96 L869.61 801.36 H737.76Z" fill="#e6aa83" opacity=".62"/><path d="M667.44 791.96 Q679.16 763.76 737.76 780.68 L743.62 810.76 H664.51Z" fill="#756071" stroke="#e6aa83" stroke-opacity=".5"/><path d="M744.48 764.24 Q749.48 761.24 754.48 764.24 L757.48 787.24 L741.48 787.24Z" fill="#efe2cd"/><ellipse cx="749.48" cy="756.24" rx="7" ry="9" fill="#efe2cd"/><path d="M745.48 786.24 L744.48 804.24 M753.48 786.24 L754.48 804.24" stroke="#efe2cd" stroke-width="5" stroke-linecap="round"/><rect x="652" y="674" width="277" height="172" fill="none" stroke="#e6aa83" stroke-opacity=".28"/><text x="660" y="874" fill="#263137" font-family="Arial,sans-serif" font-size="14">Commit a physical action</text><text x="660" y="923" fill="#756c63" font-family="Arial,sans-serif" font-size="10">CAM locked · selected object</text><text x="660" y="942" fill="#756c63" font-family="Arial,sans-serif" font-size="10">CAST player / selected action posture</text><text x="660" y="961" fill="#756c63" font-family="Arial,sans-serif" font-size="10">WORLD phone or doorway dominates frame</text><text x="660" y="980" fill="#756c63" font-family="Arial,sans-serif" font-size="10">LIGHT compressed contrast</text><text x="660" y="999" fill="#756c63" font-family="Arial,sans-serif" font-size="10">MOD door begins opening</text><text x="660" y="1018" fill="#756c63" font-family="Arial,sans-serif" font-size="10">CTRL OFF · SFX single breath</text><text x="660" y="1037" fill="#756c63" font-family="Arial,sans-serif" font-size="10">OUT cut</text></g><g><rect x="955" y="622" width="293" height="450" rx="10" fill="#fffaf2" stroke="#d5c9ba"/><text x="971" y="649" fill="#a85a47" font-family="Arial,sans-serif" font-weight="bold" font-size="13">08</text><text x="1003" y="649" fill="#263137" font-family="Arial,sans-serif" font-weight="bold" font-size="12">REALITY_REVEAL</text><rect x="955" y="666" width="293" height="188" fill="#756071"/><path d="M955 775.04 L1248 765.64 V854 H955Z" fill="#2b3043" opacity=".67"/><rect x="984.3" y="692.32" width="76.18" height="56.4" fill="#2b3043" stroke="#e6aa83" stroke-width="3" opacity=".8"/><rect x="1177.68" y="699.84" width="46.88" height="78.96" fill="#2b3043" stroke="#e6aa83" stroke-width="3"/><path d="M1063.41 788.2 H1165.96 L1180.6100000000001 801.36 H1048.76Z" fill="#e6aa83" opacity=".62"/><path d="M978.44 791.96 Q990.16 763.76 1048.76 780.68 L1054.62 810.76 H975.51Z" fill="#756071" stroke="#e6aa83" stroke-opacity=".5"/><path d="M1055.48 764.24 Q1060.48 761.24 1065.48 764.24 L1068.48 787.24 L1052.48 787.24Z" fill="#efe2cd"/><ellipse cx="1060.48" cy="756.24" rx="7" ry="9" fill="#efe2cd"/><path d="M1056.48 786.24 L1055.48 804.24 M1064.48 786.24 L1065.48 804.24" stroke="#efe2cd" stroke-width="5" stroke-linecap="round"/><path d="M1149.24 760.48 Q1154.24 757.48 1159.24 760.48 L1162.24 783.48 L1146.24 783.48Z" fill="#e6aa83"/><ellipse cx="1154.24" cy="752.48" rx="7" ry="9" fill="#e6aa83"/><path d="M1150.24 782.48 L1149.24 800.48 M1158.24 782.48 L1159.24 800.48" stroke="#e6aa83" stroke-width="5" stroke-linecap="round"/><rect x="963" y="674" width="277" height="172" fill="none" stroke="#e6aa83" stroke-opacity=".28"/><text x="971" y="874" fill="#263137" font-family="Arial,sans-serif" font-size="14">Author’s account only after commit</text><text x="971" y="923" fill="#756c63" font-family="Arial,sans-serif" font-size="10">CAM reveal hold · x50 y54</text><text x="971" y="942" fill="#756c63" font-family="Arial,sans-serif" font-size="10">CAST player + partner / separated by table</text><text x="971" y="961" fill="#756c63" font-family="Arial,sans-serif" font-size="10">WORLD same apartment, later</text><text x="971" y="980" fill="#756c63" font-family="Arial,sans-serif" font-size="10">LIGHT warm light thins</text><text x="971" y="999" fill="#756c63" font-family="Arial,sans-serif" font-size="10">MOD none</text><text x="971" y="1018" fill="#756c63" font-family="Arial,sans-serif" font-size="10">CTRL OFF · SFX silence</text><text x="971" y="1037" fill="#756c63" font-family="Arial,sans-serif" font-size="10">OUT fade</text></g></svg>